<svg xmlns="http://www.w3.org/2000/svg" width="4613.41" height="440.37" viewBox="0 0 4613.41 440.37"><title>footer-border</title><path d="M4561.5 351.75c-1.35-1.24-2.86-2.53-4.47-4l-3.22 4.63q-6.72.63-13.45 1.64c-1.54.22-3.07.46-4.61.72-3.19.54-6.38 1.14-9.58 1.82-1.49-3.88-.88-7.74 4.43-11.69 3.38-2.51 3.26-6 4.73-9l-3.23-.31-8.23 10.12-3.29-.25c-1-5.6-1.87-11.21-3-16.81-1.12-5.79-7.81-11.49-18.57-15.25 4.07 4.66 10 8.55 10.48 12.57 1.1 10.07-.33 20.21-.74 30.32l-1.69-.12v-4.33l-2.55-.28-4.06 7-36.76-15.53-3.74 1.73c2.6.92 5.37 1.77 7.78 2.79 10.81 4.53 17.6 10.14 22 16.32q-8.31 1.53-16.61 2.9l-6.64-6.72-2.6.4 3.18 7.32-6 1c-4.16-7.08-2-14.93-10.71-21.47l4.74 22.38-5.88.88-2.58-5.85h-2.29v6.53q-5.81.82-11.62 1.6l-1.51.2q-11 1.46-22 2.7c-3.24-1.08-4.2-3.3-4.92-5.12-1.51-3.83-.37-7.87-.37-11.83l3-.84 20.47 8.93c-1.28-4.84-6.28-8.63-16.27-10.68-6.21-1.27-7-3-6.29-5.94 1.12-5-2.35-8.44-11.08-12.72 11 15.75 7.5 29.24-14.73 41.34-3.52.33-7 .64-10.57 1-1.92-1.68-3.66-3.23-3.8-4.81-1.09-12.19-1.26-24.39-1.66-36.59-.11-3.66.68-7.42-9.32-11.2.84 4.94 1.64 8.47 2 12 1.5 14 5.28 28-1.56 41.73q-11.5.88-23 1.61c-.12-.82-.19-1.65-.27-2.45-.31-3.22-.08-6.45-.08-9.67h-3.46v15.4a5.93 5.93 0 0 0-3.29-2.88c-5.67-2.62-16.33-3.09-17.27-7.32 0-.23-1.66-.52-2.58-.56-9-.37-9.46-4-7.91-6.1 6.1-8.33-4.74-15.69-5.13-23.58 0-1-2.1-2-3.23-3-2.39 2.26-1.89 4.2-1.69 6.14.72 6.94 2 13.88 1.8 20.81-.17 5.19-1.91 10.36-3 15.55q-8.49.33-17 .59c-1.09-2.27-2.13-4.4-3.16-6.53l-2.29.22q-.71 3.25-1.43 6.51-3.94.12-7.89.21a13.43 13.43 0 0 0-1.76-1.9c-1.59-1.42-5.17-2.4-8.09-3.45a26.83 26.83 0 0 0-3.47 1.34c2.22.73 6.67 1.49.64 2.43-1.47.23-5.18-.65-5.78-1.38-2.56-3.07-6.2-6.31-6-9.43.42-6.07 3.18-12.11 5-18.16l-2-.12-6.27 7c1-5.18 1.7-9.09 2.43-13l-3.84-.26c-4.1 9.55-8.19 19.1-12.77 29.75-6.13-8-11.32-14.81-16.92-22.14l-10.13 9.61-14.89-7.32c2.56 5.39 14.23 9.22 5.54 16.18-4-4.79-7.23-8.69-10.47-12.6l-2.24.24c-.19 1.17-.39 2.34-.87 5.22l-21.19-28.16-3 .39c3 11.26 16.49 21.5 20 32.72l-3.34.37-8-12.89c-1 4.94-.13 9.63 0 14.32 0 1.33-2.86 3.85-3.71 3.79-5.22-.36-5.31.59-5.63 2.54-.56 3.4-1 4-7 5.56-1.47.37-3.29.79-5.52 1.32.21-.45.41-.91.59-1.36 5.82-14.53-4.32-28-12.07-41.57L4098.85 368l-4.27.26c-1.87-1.75-5.26-3.5-5.31-5.26a54.2 54.2 0 0 1 1.88-15.58c1.52-5.62-2.54-10.17-9.8-14.37.31 3.88 3.91 7.53 3.93 11.19a356.62 356.62 0 0 1-2.19 37.33c-.14 1.45-2.36 2.85-4.5 4.39-.68.5-1.36 1-2 1.53-1.29-.52-2.48-1.06-3.58-1.6-10.28-5.1-12.39-11-13.7-16.92-1-4.57-5.35-7.93-13.45-10.55 2.3 3.83 6.82 7.35 8.57 11.12 2.74 5.92-11 4.94-16.64 7.94-6.33-7.24 2.58-15-7.49-21.56l-5.84 7.9-4-.59 10.43-19-9.37 4.75v-12.55c-3.23 7.73-4.53 15.39-6.45 23-.54 2.14-3.75 6-4.33 6-8.88-.82-5.86 3-8.6 4.45-11.82-5.83-10.28-12.25-6-19 1.89-3 2.4-6.14 3.53-9.21l-3.54-.37-4.12 3.28c-.17 2.37.36 4.81-.64 7.11-3.29 7.52-7.14 15-10.33 21.6 0-5.22-1.29-11.54.47-17.68 1.09-3.81 6.82-7.35 10.45-11l-10.89 3.61c-1.81-6.14-3.47-11.78-5.14-17.43-2.51 6.38-2.44 12.7-2.55 19 0 2 .18 4.15-1 6.07-2.07 3.31-6.41 3.6-11.75 1.12-3-1.4-6.19-2.71-9.3-4l-1.95.84 7.17 16.81-14.2-13.89-3.24.52c.81 3 1.62 5.9 2.64 9.56-9.22-3.52-16.32-6.77-24.56-9.24-8.9-2.66-18.11-4.85-16-11.1l-3.87.52v20.47l-4.41.17a39.88 39.88 0 0 0-2.69-5.39 43.84 43.84 0 0 0-4.08-4.54L3874.79 371l-4.17-.23c-10.48-6.26-19.46-12.72-16.24-21.38 1.75-4.72.27-9.21-8.12-12.86.09 6.69 4.29 13.45 2.28 19.81-2.12 6.66-10.2 12.94-16.07 19.86l-8.71-6.33c-.43 2.24-.62 3.28-.82 4.32h-1.71l-2.6-6c-1.58 1.32-2.36 2-3.13 2.63l-2.3-.12v-14.42l-3.93-.13-6.3 23c-11-4.9-13.39-10.06-5.81-16.32 4.73-3.91 8-8.26 6.42-13.09-5.76 9.42-24.41 16.22-23.16 27.14-16.53-7.74-21.09-15.81-15-25.19 2.63-4.11 3.42-8.46 5.06-12.7 1.76-4.56 1.56-5-4.47-8.83l-10.67 37.06-19.83 3c-1.55-8.74-3-16.66-4.37-24.59-4.3 13.92-29.26 21.76-42.89 31.26-3.07-9.55-6.35-19.78-9.62-30l-3.49.18c.75 5.16 1.46 10.32 2.28 15.47s.74 9.86-12.83 11.4c-8.29-6.2-6.79-12.88-5.92-19.78 1.32-10.54.34-21.15.34-31.73l-2.49-.12-9.89 45.22c-12.07-8.76-6.65-19.89-27.7-25.53 9.59 6.61 13.71 13.69 9 21.28-4.34 7-1.8 15.27-17.64 20.45-5.66-7.83 1.9-13.93 9.69-20l-18.11 5.47v-28.11l-4.29-.14c-.6 2-1.68 4-1.71 6.08-.12 7.72.35 15.44 0 23.16-.1 2.08-2.28 4.15-3.49 6.23l-3-.29-29.12-27.57-6.36 11.07.05-.07v.16c2.82 5.62 7.55 11.24 7.61 16.85 0 3.41-7.34 6.83-11.39 10.24l-4.41-.69c2.48-5.49 5.38-11 7.27-16.5 1.11-3.25.68-6.6.92-9.9v-.09l-7 9.91-1.38-.1 4.59-21.25-2.72-.2q-6.15 15.34-12.32 30.68c-1.75-3.73-.65-7.64-3.4-10.89-7.84-9.26-3.48-17.77 4.77-26.31a44.12 44.12 0 0 0 5-6.41c1.28-1.91 2.18-3.87 4.08-7.3-25 17-26.92 34.82-27.46 52.73-1.92-4.15-2.49-8.15-3.3-12.14-1.7-8.31-4.47-16.61-5-24.93-.52-7.71-4.21-14.83-11.24-21.65l-3.26.18 1.29 9v.05a.54.54 0 0 0 .05-.11v.2c2.16 4 5.05 7.87 6.27 11.89a292.39 292.39 0 0 1 7.36 30.56c-9-7.18-15.08-14.56-13.68-23 1.06-6.43.13-12.93.05-19.4l-.05-.09c-2.15 5.47-5.24 10.93-6.2 16.45-1.09 6.27-.25 12.6-.25 18.91-6-6.32-8.69-12.91-27.35-16.14 2.14 3 3.62 4.71 4.46 6.44a18.81 18.81 0 0 1 1.07 4.61l-3 .58c-.41-8.49-18-9.66-27-15.06l-13.8 17.16-5.52-.79c-2.48-12.19 23.49-21.25 20.77-33.57-8.26 12.75-24.64 23.79-35.05 37.14-1.63-2-2.81-3-3.22-4-5.19-13.25 3.33-24.62 23.64-34.27 8.45-4 16.13-8.17 18.42-13.85-17.09 6-29.55 13.5-39.11 23.69-3.2-9.78 5.15-18.4-4.57-26.43-3 11.92 5 24.28-7.21 37.33l-8.13-20.21-2.39.12c-.44 1.68-.88 3.36-1.66 6.29-7.87-6.39-14.84-11.6-20.84-17-8.38-7.59-16.56-10.94-27.66-10.51 9.2 5.4 18.11 10.81 27.46 16.06 11.62 6.53 7.6 13.29 3.2 21.54L3339 335l-1.39.51q8.31 5.43 16.6 10.88c3 3.5 7.61 6.91 8.5 10.51 1.43 5.82.38 11.76-1.71 17.66V358h-3.58v14c-5.14-5.53-10.73.41-15.46-.36l9.57-23-11.53 12.14h-2.1l-5.56-20.48h-1.55c-.46 4.22-.92 8.43-1.54 14.16l-5.66-7.77-1.91.19q3.24 11.1 6.46 22.2c-9.64-16.94-33.17-32.68-22.86-51.36-3 2.77-5.55 5.6-5.17 8.34 1.4 9.9 3.8 19.76 5.81 29.64l4 19.83-4.35.34c-8.3-5.22-18.7-9.58-15.58-17.6 3.71-9.5 4.14-19.26 6-28.91-2.51.93-3.76 1.94-4.14 3-2.88 8.18-3.75 16.63-17.29 23.23-1.17.56-1 1.71-1.41 2.59l11.74-4.68c-1.48 5.17-2.9 10.1-4.67 16.29-1.83-1.51-2.73-1.92-2.75-2.34 0-.65 1.13-1.39.77-2-1.56-2.43-3.49-4.81-5.29-7.2-1.83-2.24-5.5-4.54-5.14-6.71 1-6.24-.18-11.62-16-14.6 4 7.84 9.51 15.22 11.09 22.77 1.54 7.32-1 14.81-1.81 23.19-7.71-6.15-14.7-10.73-19.39-15.76s-7-10.38-11-16.49c-11.51 9.41 1.57 19.23-5.16 28.29-5-16.36-22.7-31.56-22.5-48.59-1.61 3.79-2.93 7.71-1.73 11.47 2.29 7.17 6.35 14.22 9 21.37 1.14 3.07.7 6.26.7 9.39 0 .43-1.57.86-2.55 1.36l-5.25-4.57-6.71 22.44-5.94-.33 8.26-37-15.3 9.48-3.25-.49q2.85-8.92 5.68-17.87l-2.39-.13c-1.75 2.52-3.49 5-5.61 8.11l-5.28-12.09-3 .08c3.58 10.82 7.72 21.66-5.26 32.44-1.95-5.94-3.71-11.28-5.47-16.62-.21-.64-.36-1.28-.54-1.92l-2.74 1.15q.57 2.49 1.12 5l-2.68.15q-1.39-5.94-2.77-11.89l-2.06.09-2.2 18.64c-15.72-20.46-9.54-39.77-3.32-59.19-8.07 6.28-8.5 13.15-10.63 20-2.06 6.57-7.9 12.89-12.48 19.93-2.52-3.94-4.49-7-6.47-10.08l-3.47.43c1.73 4.15 4.09 8.27 5 12.45.86 4 .18 8 .18 12H3113l-6.7-5.43c-.8 5.34 8 10 .17 15.57l-3.79-9.52-1.7.15-1 8.34h-1.14q-2.46-8.33-4.91-16.66h-2.25v14.3l-4.06.25c-3.46-5.69-6.93-11.37-10.64-17.46-.54 4.4-1 8.52-1.62 13.27l-10.87-3.19v2.72c16.16 3.89 5 10.51 7.72 15.74l-7.72.62v7.22a37.64 37.64 0 0 1-7.37-2c-2.16-.74-19.27-2.84-20.11-2-6.5 6.62-15.93 1-25.33.9l17.32-11.88-2.53-.87c-7.69 5.47-23.9 6.91-28.26 14l-3.32-.16-7.6-9.88-9.2 6.82-2.05-.35 17.13-22.74-3-.45-18.17 19.43-4.29-.69 11.19-14.84-2.69-.66-16.29 12.94c-6.39-.76 9-6.65-6.93-5.06 1.33-2.59 2-5.32 4.15-7.76 3.85-4.24 5.55-8.22 4.23-14l-5.27 4.07c-5.26-5.83 6.31-11.54-2.41-17-2.78 10.17-2.71 20.48-10.5 30.26l3.45-17.54-2.29-.12-13.25 27.33-3.61-.18c.49-14 2.18-28-3.19-41.83l-4 .12c1.27 6.62 2.54 13.24 4.07 21.28l-9.9-8-10.18 6.58c-1.34-6.35 2.17-12.08-7.5-16.33.06 4.35 2.15 8.55 2.65 12.79s-.57 8.64-.95 13l-2.25-.15-11.61-38.48-3.39.16c1.06 5.81 2.24 11.61 3.16 17.42s-2 11.21-8.46 17c-4.16-5.51-7.67-10.17-11.19-14.82l-3 .48 11.09 18.3c-8.22-4.82-9.17-11.74-25.76-14 0 6-.21 11.57.07 17.16.23 4.66-7.42.82-7.72.93-.8 3.29-1.31 5.34-1.81 7.39-4.3-1.13-9.68-1.87-12.61-3.5-3.34-1.85-4.43-4.52-6.64-6.81a12.92 12.92 0 0 0-2.94-.92l-3.86 5.81c-13.58-5.29-3-12.57-10.78-19.13-1.05 5.31-.38 9.51-3 13.22-2.53 3.53-8.53 6.56-13 9.82-1.39-3.3-1-6.23-.34-9.14s1.64-5.68 2.49-8.52l-3.56-.1-8.62 18.15-2.55-.4-4.67-6.93-3 .38q.3 2.82.58 5.63c-5.3-2.47-7.31-5.51-11-8s-9.16-4.62-14-6.85c-4.41-2-9-4-13.49-6 8.2 7.41 24.42 12.78 17.45 22.8-6.16-1.79-13.75-2-16.62-6.67-7.6 8.75 1.29 17.4-4.37 25a14 14 0 0 1-3.19 3.06l-3.41-3.22-5.41-5.11c-2.82 1-4.77 1.72-6.91 2.33a18.2 18.2 0 0 0-3.92 2.19l-20.7-3.67 1.83 3.78c1.13 2.33 2.08 4.29 3 6.25l-4.19.91-10.59-7.19h-15.83l-8.91 7.94c-1-2.66.16-5.32 1.18-7.89 1.63-4.1 2.82-8-6.16-11.32l-14.5 4.69 5.46-11-1.81-.22-22.79 16.5-5-1.27 23.15-20.5-2.72-.73-17.84 12.3-3.27-.73c1.49-3 2.41-6.13 4.59-9 5.6-7.51 11.75-14.94 17.69-22.4l-1.18-.43-16.66 10.34c-10.66-2.54-.52-7.12-9.28-9.92-4-1.28-1.74-6.35-2.85-9.67-1.06-3.15 3.82-7.07-6.92-10.28l1.86 9.53-1.46.23-15.35-14.11-2.9.6c3.92 4.56 7.1 9.3 11.93 13.67 8.46 7.64 9.41 15.65 8.43 23.9-.42 3.54-1.79 6.31-12.44 4.54 4.4 4.72 4.4 4.72-8.56 10.48 1.89-4.56 3.84-8.53 5.09-12.55s1.79-8 2.64-12l-3-.14-8.51 17.33c-6.68-4.74-6.68-4.74-8.05-15.44-.07-.52-1.2-1-2.28-1.85l-6.84 5.93-3.35-16.8h-3.31c-.62.78-1.86 1.58-1.78 2.36.59 5.43 1.75 10.84 2.12 16.28a85 85 0 0 1-.27 16.34c-.18 1.39-5.09 3.93-5.36 3.87-10.95-2.64-11.52.66-12.87 4.13-.37.92-4.16 1.56-8.08 2.93 1-3.9 1.92-6.59 2.31-9.29.18-1.24-.48-3.61-1.06-3.63-10.89-.36-5.25-3.42-4.17-5.37 2.3-4.15 5.35-8.21 8.09-12.31l-3.79-.54-19 23.71-3-.4c2.23-3.66 4.45-7.33 6.74-11.11l-6 .69c1.79-5.92 3.54-11.69 5.3-17.45l-1.87-.16-4.83 3.31-9.84-14.59c-3 1.18-3.54 2.09-3.23 2.92 2.59 6.92 6.15 13.79 7.71 20.75.78 3.43.52 9.06-3.73 10.15-10.44 2.67-4.66 6.41-6.8 9.48-.58.82-.26 1.77-.48 3.94-1-3.33-1.65-5.41-2.48-8.13l-5.94 4.59-7.51-6.8-10.24 4.21c-1.8-6.75-3.33-12.44-4.85-18.13l-3.42.17-2.18 10-3.53-.17c.94-5 1.89-10 2.82-15l-3.43-.13q-4.3 11-8.62 22c-11-8.12-2.87-16.41-5.55-24.48l-5.36 6.92-3-5.43-2 .13-4.8 18.89h-3c-2.08-7.21 3.72-15.38-11.86-21 4.35 8 12.2 15.88 3.37 25.29l-8.52-6.1-1.86.44 7.39 11-3 .76-16.14-7.58c1.87 6.46 3.6 12.38 5.3 18.22.36 1.23.71 2.46 1.07 3.69l-2.87.16c-.53-1.23-1.06-2.46-1.58-3.69-.32-.74-.64-1.47-.95-2.21H2371l-1.53 2.42c-1 1.51-2 3.14-3.24 5.08-2.23-1.78-2.39-3.37-1.68-4.85 1.41-3 6.3-5.47 4.72-8.11l-9.87 1.92v-25.3c-11.11 6.53-4.44 16.9-28.25 17.69l2.14-4.48-1.75-.35-11.34 6.29c1.12-4.42 1.86-7.37 2.79-11-9 2.91-9.52 11.4-26.11 7-4.69-8.5 10.69-15.28 9.27-23.76L2286.69 381c-10-10.06-8.95-20.21-4.45-30.5l-3.06-.08-5.6 11.32-15.93-13.21-3.55.57c12.18 11.42 24.89 22.82 10.75 35.62q1.52-4.81 3-9.63l-2.06-.38-6.09 4.14c-2.49-1.46-3.84-2.9-6.23-3.48-1.95-.47-5.48.51-7.7.12-5.13-.89-8.3-7.2-6.23-11 .4-.74.06-1.57.06-3.69l-8.6 4.77-6.89-5.06c2.56 9.46 1.35 12.48-4.39 16.55-2.85 2-9 2.43-8.64.72 1.08-5.26-9-10.15-1.13-15.63 4.44-3.1 6.17-7 9.12-10.52l-4.58-.74c-6.33 7.53-12.68 15-19.79 23.49L2181.24 361l-2.46.41c2.69 4.57 5.39 9.13 8.58 14.54l-11.07-3.1c3 3.75 5.36 6.59 7.78 9.57l-25 2.29c-.44-1.46-.82-2.71-1.19-4h-1.94l-4.23 5.54c-1.18-7.79 2.48-14.88-9.57-20.58l5.55 21.3-1.07.08-6.78-7.84c-.61 2.73-1.1 5-1.55 7l-4.19-1c.4-2.25.81-4.47 1.21-6.7 2.07-11.38 4.29-22.74 6.13-34.17 1-6.3.73-12.87 2.17-19a139 139 0 0 0 3.35-28.26 27.21 27.21 0 0 1 4-14.25c6.22-9.89 12.48-19.76 18.6-29.71 4-6.59 7.58-13.51 12.78-19.3a26 26 0 0 0 2-3.5 27.27 27.27 0 0 1 3.14-4.51 80.32 80.32 0 0 1 8.57-7.94c3.49-2.65 7.36-4.78 12-7.72.17-.32.92-1.64 1.65-3a6.85 6.85 0 0 1 1.5-.49c6.22-.44 12.47-.68 18.67-1.35 2.81-.3 5.53-1.47 8.3-2.19 6-1.55 12-3.07 17.21-4.4 4.19 2.3 7.62 3.91 7.06 8.46 3.93 2.18 4.92-1.07 6.65-3.4l3.76 1.87 2.08-2.59 3.92 2.31 2.16-1.66 2.76 1c-.19-1.38-.34-2.49-.5-3.6 5.81-2.15 10.18 2.21 15.13 4.36.5-4.35.5-4.35-5.06-13.52l3.48-1.36c.33-.9.66-1.83.81-2.22l7.18-2 7 2.41 11.5-8.36 4.9 2.09 3.51-4.84a48.13 48.13 0 0 1-2.53-5.79 44.25 44.25 0 0 1-.78-5.89l-3.81 1.22-9.3-8.25c-5.65-.49-12.53-1.36-19.44-1.59a62 62 0 0 0-13.44 1.14c-2.16.42-4 2.31-6.59 3.85l-8.65-.73a8.19 8.19 0 0 1-8.8 3.53c-3-.53-4.27 1.64-5.21 3.93-3.16 7.77-8.68 12.57-16.78 14a5.07 5.07 0 0 0-4.29 3.83c-.41 1.31-.76 2.64-1.09 3.83l-19 11.38-3.13-6.26 20.85-9.3-.5-1.31-22.62 8.06c.13 2.78.27 5.63.44 9.3-3.89 3.57-9.54 2.76-14.95 4.13-2.33-4.13-1.33-8.46-1.31-12.66-.16-.17-.33-.34-.49-.52-5.07 4.08-2.72 9.42-2.24 14.57-3.22 4.62-9.4 4.44-13.46 8.66.56 3.52 1.18 7.35 1.87 11.66l-4.2.37c-1.52-3.86-2.95-7.28-2.31-11.29a6.52 6.52 0 0 0-.84-3.94c-2.79-4.88-3.19-10.12-2.61-16.59a13.91 13.91 0 0 1 2.64-2c3.19-1.54 5.36-4.12 7.35-7a8.43 8.43 0 0 1 5.77-3.67 56.53 56.53 0 0 0 11-3.75c2.78-1.17 5.56-1.71 8.38-.77 4.47 1.49 8.63.72 12.79-1.1 6.21-2.72 12.41-5.49 18.71-8 4.24-1.66 8.67-2.78 13-4.24 3.65-1.23 7.33-2.43 10.87-4 4.51-2 8.82-3.85 14-3.77 3.14 0 6.4-1.81 9.45-3.19 2.29-1 2.17-1.31 4.88-.21.39-.45.77-.91.9-1.05 3.55-.6 6.32-.78 8.87-1.62 1.37-.46 2.36-1.08 4-.72s3.6-.35 5.75-.64l3.91 2.94 7.54-2.59 6 2.18c-.42-1.73-.63-2.58-.67-2.76 5.79-1.79 12-.16 19.18-2.14l-5.27-5.93-.82.49c-.37-2.37-.75-4.73-1.16-7.28l-5.76-2.09-2.77 1.16-6.34-4c-9.28 2.55-18.71-.35-28.36-.79.07-.72.14-1.37.2-2l-9.12-5.23a4 4 0 0 1-.07.48l-7.85-1.64c-.13-1.46-.21-2.27-.28-3l-6.76-1.94-2.53 1.23v-.79h-16l-2.23 2.8a36.58 36.58 0 0 0-5.73-2.27 46.92 46.92 0 0 0-6.68-.52l-5.7 3.06-3.49-2.75-3.57.45c-2-4.63-5-7.19-9.85-5.82l-3-2.6-9.23-1-5.91 3c-.85-1.53-1.69-3-2.46-4.44l-4.48 1.73c-4.92-3.21-9.85-2.9-15.5-1.91a31.13 31.13 0 0 1-17.73-2.46c-3.72-1.68-7.31-.89-11.3-1.14-1.53-2.6-3.93-2.55-6.82-2.07-3.7.61-7.51.49-11.26.75a9.36 9.36 0 0 0-2.46.62 27.36 27.36 0 0 1-11.13 2c-2.65-.17-3.48 2.26-5.83 3.24l-4.58-3.37c-1.49 1.23-3.1 2.54-5.05 4.13-2.78-1.24-3.75 2-5.84 3.69 3 5 9.11 4.09 12.86 8.27 0 .91-.12 2.4-.21 4.07l-5.17 2L2088 115c-1.74.92-3.48 1.29-4.35 2.4-2.82 3.6-7 4-10.79 5-1.2.33-2.78-.82-4.44-1.38-3.4 2.46-6.91-1-10.57-.55s-7.34.83-11.07 1.25l-4.74 4-4.17-1.81c-5.8 2.94-9.74-4.16-15.29-3.19l-3.1 3.51-1.57-.7-5.58 3.76-4.63-5.76a10.53 10.53 0 0 0-1 1.63c-.45 1.33.64 3.56-1.51 3.87a3.55 3.55 0 0 0-1.3.47l-4.05-3.39-1.47 4.29-2.84-.53-1.33-3.85-1.69 1.69c-4.53-2-9-2-13.87-.63-4.47 1.26-9.05 5.55-13.69 2.43-5-3.35-10.4.64-15.43-2.49-3.44-2.14-8.75-.78-12.15-5l2.35-3.09c-1.32-.68-2.76-1.35-4.14-2.11-1.67-.93-3.37-2.87-4.92-2.74-4.7.4-7.65-3.18-12-4.41-3.32 3.87-7.5 1.93-11.28 1.84-.36-1.68-.57-2.61-.77-3.52-2.92.49-3.48 5.65-7 3.46.34-1.92.65-3.64 1.13-6.28l-3.53 2.83v-4l3.24-.92-5.13-5.58h-5.64c-4.15-5.75-11.52-4.53-16.58-7.83-6.61 2.2-9.12 2-15.47.5-3.05-.71-6.41-.39-9.59-.1-2.52.23-5 1.13-8.7 2-.92-1.67-1.93-3.48-2.44-4.4-9.08-1.33-17.35-3.62-25.14 1.38-3-3.84-6.22-1.25-9.58.4L1792 81.08l-8.64 2.41-3.36-2.58-4.56 4.09-7.3-2.23-1.18-4c-1.39.41-2.77.92-4.14 1.45-1.07-1.42-2-2.83-2-4.22.11-3.81-2.66-4.32-4.66-5.65-1.65-1.1-3.78-1.49-5.7-2.19-.42-1.57-.85-3.21-1.4-5.3l-3.65 2.48c-5.62-1.69-10.84-3.63-16.23-4.78-5.63-1.2-9-3.71-7.79-10.39l-8.17 1.15c-.26-.87-.65-2.15-.93-3.07l-19.19-8.77c-3.62.46-6.74 1.33-9.79 1.13-3.28-.22-6.57-2.33-9.69-2-4.08.42-5.38-3.47-8.75-3.93-3-.41-1.48-3.42-2.12-5.22a13.08 13.08 0 0 0-1.46-2.19l-6.51 7.73-7.78-5-2.21.94-4.37-4.72c-7.82-1.32-13.37 8.26-21.55 4.29l-5.93 2.49c-2.44-2-4.62-3.78-6.68-5.45-5.25-.57-10.43-1.1-15.59-1.69s-10.1 4.06-14.9.75c-2.34.75-4.57 2.29-6.26 1.85-5.37-1.39-11.23-1.89-15.2-6.74-1.22-1.49-3.69-2-6.13-3.23l-10.64 16.14-7.29-2.64c-.12-2.25-.22-4.26-.29-5.48 5.28-5.63 13.89-4.4 18.13-11.15-2.95-2.29-4.32-6.65-8.25-5l-7.11-5.56-6.45 4.53c-3.28-1.33-4.48-4.63-8.21-4.4-5.34.33-10.61-1-15.7-2.76a13 13 0 0 0-3.46-.82c-5.29-.36-10.66-.2-15.87-1-4.07-.65-7.45-.71-9.61 2.8-5.61.33-10.68-.74-15.92 1.52a45.44 45.44 0 0 1-25 3.32c-7.95-1.33-14.91-1.75-21.84 2.58l-6.31-2.33-3.47 6-8.33-4.08-13 1.39-4.27 3.45c-6.8-1.86-11.12 1.6-13.89 7.84l-5-.61-5 3.77-8-4.12c-3.09.19-6.33.06-9.41.69-2.72.56-5.26 2-8.07 3.07l-3.15-3.78h-22.47v1.07l-3.56-1.65-9.54 2.6c-.09 1-.2 2-.39 4l-11.06 2.22a3.66 3.66 0 0 0-.1-.65l-12.85 7 .28 2.74c-13.6.59-26.89 4.5-40 1.06l-8.92 5.39-3.91-1.56-8.12 2.82c-.57 3.43-1.11 6.62-1.64 9.81l-1.14-.65-7.44 8c10.1 2.68 18.87.48 27 2.89-.06.25-.35 1.4-.94 3.73l8.43-2.94 10.6 3.47 5.51-4c3 .39 5.72 1.36 8.1.86s3.72.36 5.66 1c3.6 1.14 7.49 1.37 12.5 2.18.16.17.71.8 1.26 1.42 3.82-1.48 3.65-1.12 6.88.28 4.3 1.86 8.89 4.37 13.32 4.31 7.29-.11 13.37 2.44 19.72 5.08 5 2.07 10.18 3.69 15.33 5.36 6.08 2 12.33 3.47 18.3 5.71 8.88 3.34 17.61 7.08 26.36 10.74 5.87 2.46 11.74 3.5 18 1.48 4-1.27 7.88-.54 11.8 1 5 2 10.2 4.1 15.52 5.06a12 12 0 0 1 8.13 5c2.8 3.83 5.86 7.31 10.35 9.39a19.08 19.08 0 0 1 3.72 2.65c.82 8.72.26 15.79-3.68 22.37a8.5 8.5 0 0 0-1.18 5.31c.9 5.4-1.11 10-3.26 15.23l-5.91-.51c1-5.8 1.84-11 2.63-15.72-5.72-5.69-14.43-5.44-19-11.67.68-6.95 4-14.15-3.16-19.64l-.7.7c0 5.66 1.44 11.5-1.83 17.06-7.63-1.84-15.6-.75-21.08-5.56.24-4.95.43-8.8.62-12.54L1349 112.9c-.24.59-.47 1.18-.71 1.76l29.39 12.54-4.41 8.45-26.76-15.36c-.48-1.6-1-3.39-1.54-5.16a7.08 7.08 0 0 0-6-5.17c-11.41-2-19.19-8.46-23.65-18.94-1.32-3.09-3.12-6-7.34-5.31-5.15.87-9.36-.57-12.4-4.75l-12.19 1c-3.58-2.08-6.25-4.64-9.29-5.19a90.5 90.5 0 0 0-18.94-1.55c-9.73.31-19.43 1.48-27.39 2.14l-13.22 11.17-5.37-1.64c-.39 3-.42 5.58-1.1 7.93s-2 4.47-3.56 7.82l4.95 6.52 6.9-2.81 16.2 11.26 9.82-3.24 10.12 2.66 1.14 3 4.9 1.84c-7.83 12.35-7.83 12.35-7.13 18.22 7-2.9 13.14-8.78 21.32-5.88-.22 1.5-.44 3-.7 4.86l3.88-1.34L1279 140l5.53-3.12c1.11 1.33 2.05 2.46 2.93 3.5l5.3-2.52c2.43 3.14 3.83 7.53 9.36 4.58-.78-6.13 4-8.3 10-11.41 7.33 1.8 15.8 3.84 24.25 5.94 3.91 1 7.74 2.54 11.7 3 8.74.9 17.54 1.22 26.31 1.82a10.37 10.37 0 0 1 2.12.66l2.33 4c6.51 4 12 6.85 16.89 10.42a110.43 110.43 0 0 1 12.07 10.71 35.76 35.76 0 0 1 4.43 6.07c1 1.53 1.62 3.41 2.85 4.73 7.34 7.8 12.31 17.13 18 26 8.63 13.43 17.45 26.73 26.22 40.06a35.54 35.54 0 0 1 5.66 19.22 179.9 179.9 0 0 0 4.72 38.1c2 8.32 1.64 17.18 3.07 25.68 1.49 8.83 3.15 17.64 4.84 26.44-.59.07-1.17.16-1.76.25-1.54.22-3.07.46-4.61.72-3.19.54-6.38 1.14-9.58 1.82-1.49-3.88-.88-7.74 4.43-11.69 3.38-2.51 3.26-6 4.73-9l-3.23-.31-8.23 10.12-3.29-.25c-1-5.6-1.87-11.21-3-16.81-1.12-5.79-7.81-11.49-18.57-15.25 4.07 4.66 10.05 8.55 10.48 12.57 1.1 10.07-.33 20.21-.74 30.32l-1.69-.12v-4.33l-2.55-.28-4.06 7-36.75-15.64-3.74 1.73c2.6.92 5.37 1.77 7.78 2.79 10.81 4.53 17.6 10.14 22 16.32q-8.31 1.53-16.61 2.9L1402 360l-2.6.4 3.18 7.32-6 1c-4.16-7.08-2-14.93-10.71-21.47l4.74 22.38-5.88.88-2.58-5.85h-2.29v6.53q-5.8.82-11.62 1.6l-1.51.2q-11 1.46-22 2.7c-3.24-1.08-4.2-3.3-4.92-5.12-1.51-3.83-.37-7.87-.37-11.83l3-.84 20.47 8.93c-1.28-4.84-6.28-8.63-16.27-10.68-6.21-1.27-6.95-3-6.29-5.94 1.12-5-2.35-8.44-11.08-12.72 11 15.75 7.5 29.24-14.73 41.34-3.52.33-7 .64-10.57 1-1.92-1.68-3.66-3.23-3.8-4.81-1.09-12.19-1.26-24.39-1.66-36.59-.11-3.66.68-7.42-9.32-11.2.84 4.94 1.64 8.47 2 12 1.5 14 5.28 28-1.56 41.73q-11.5.88-23 1.61c-.12-.82-.19-1.65-.27-2.45-.31-3.22-.08-6.45-.08-9.67h-3.46v15.4a5.93 5.93 0 0 0-3.29-2.88c-5.67-2.62-16.33-3.09-17.27-7.32-.05-.23-1.66-.52-2.58-.56-9-.37-9.46-4-7.91-6.1 6.1-8.33-4.74-15.69-5.13-23.58 0-1-2.1-2-3.23-3-2.39 2.26-1.89 4.2-1.69 6.14.72 6.94 2 13.88 1.8 20.81-.17 5.19-1.91 10.36-3 15.55q-8.49.33-17 .59c-1.09-2.27-2.13-4.4-3.16-6.53l-2.29.22q-.7 3.25-1.43 6.51l-7.89.21a13.44 13.44 0 0 0-1.76-1.9c-1.59-1.42-5.17-2.4-8.09-3.45a26.86 26.86 0 0 0-3.47 1.34c2.22.73 6.67 1.49.64 2.43-1.47.23-5.18-.65-5.78-1.38-2.56-3.07-6.2-6.31-6-9.43.42-6.07 3.18-12.11 5-18.16l-2-.12-6.27 7c1-5.18 1.7-9.09 2.43-13l-3.84-.26c-4.1 9.55-8.19 19.1-12.77 29.75-6.13-8-11.32-14.81-16.92-22.14l-10.13 9.61-14.89-7.32c2.56 5.39 14.23 9.22 5.54 16.18-4-4.79-7.23-8.69-10.47-12.6l-2.24.24c-.19 1.17-.39 2.34-.87 5.22l-21.19-28.16-3 .39c3 11.26 16.49 21.5 20 32.72l-3.34.37-8-12.89c-1 4.94-.13 9.63 0 14.32 0 1.33-2.86 3.85-3.71 3.79-5.22-.36-5.31.59-5.63 2.54-.56 3.4-.95 4-7 5.56-1.47.37-3.29.79-5.52 1.32.21-.45.41-.91.59-1.36 5.82-14.53-4.32-28-12.07-41.57L1034.32 368l-4.27.26c-1.87-1.75-5.26-3.5-5.31-5.26a54.2 54.2 0 0 1 1.88-15.58c1.52-5.62-2.54-10.17-9.8-14.37.31 3.88 3.91 7.53 3.93 11.19a356.66 356.66 0 0 1-2.19 37.33c-.14 1.45-2.36 2.85-4.5 4.39-.68.5-1.36 1-2 1.53-1.29-.52-2.48-1.06-3.58-1.6-10.28-5.1-12.39-11-13.7-16.92-1-4.57-5.35-7.93-13.45-10.55 2.3 3.83 6.82 7.35 8.57 11.12 2.74 5.92-11 4.94-16.64 7.94-6.33-7.24 2.58-15-7.49-21.56l-5.84 7.9-4-.59 10.43-19L957 349v-12.57c-3.23 7.73-4.53 15.39-6.45 23-.54 2.14-3.75 6-4.33 6-8.88-.82-5.86 3-8.6 4.45-11.82-5.83-10.28-12.25-6-19 1.89-3 2.4-6.14 3.53-9.21l-3.54-.37-4.12 3.28c-.17 2.37.36 4.81-.64 7.11-3.29 7.52-7.14 15-10.33 21.6 0-5.22-1.29-11.54.47-17.68 1.09-3.81 6.82-7.35 10.45-11l-10.89 3.61c-1.81-6.14-3.47-11.78-5.14-17.43-2.51 6.38-2.44 12.7-2.55 19 0 2 .18 4.15-1 6.07-2.07 3.31-6.41 3.6-11.75 1.12-3-1.4-6.19-2.71-9.3-4l-2 .84 7.19 16.81-14.2-13.89-3.24.52c.81 3 1.62 5.9 2.64 9.56-9.22-3.52-16.32-6.77-24.56-9.24-8.9-2.66-18.11-4.85-16-11.1l-3.87.52v20.47l-4.41.17a39.84 39.84 0 0 0-2.69-5.39 43.82 43.82 0 0 0-4.08-4.54L810.26 371l-4.17-.23c-10.48-6.26-19.46-12.72-16.24-21.38 1.75-4.72.27-9.21-8.12-12.86.09 6.69 4.29 13.45 2.28 19.81-2.12 6.66-10.2 12.94-16.07 19.86l-8.71-6.33c-.43 2.24-.62 3.28-.82 4.32h-1.71l-2.6-6c-1.58 1.32-2.36 2-3.13 2.63l-2.3-.12v-14.42l-3.93-.13-6.3 23c-11-4.9-13.39-10.06-5.81-16.32 4.73-3.91 8-8.26 6.42-13.09-5.76 9.42-24.41 16.22-23.16 27.14-16.53-7.74-21.09-15.81-15-25.19 2.63-4.11 3.42-8.46 5.06-12.7 1.76-4.56 1.56-5-4.47-8.83l-10.67 37.06-19.83 3c-1.55-8.74-3-16.66-4.37-24.59-4.3 13.92-29.26 21.76-42.89 31.26-3.07-9.55-6.35-19.78-9.62-30l-3.49.18c.75 5.16 1.46 10.32 2.28 15.47s.74 9.86-12.83 11.4c-8.29-6.2-6.79-12.88-5.92-19.78 1.32-10.54.34-21.15.34-31.73l-2.49-.12-10 45.28c-12.07-8.76-6.65-19.89-27.7-25.53 9.59 6.61 13.71 13.69 9 21.28-4.34 7-1.8 15.27-17.64 20.45-5.66-7.83 1.9-13.93 9.69-20l-18.11 5.47v-28.17L533 341c-.6 2-1.68 4-1.71 6.08-.12 7.72.35 15.44 0 23.16-.1 2.08-2.28 4.15-3.49 6.23l-3-.29-29.06-27.58-6.36 11.07v-.07.16c2.82 5.62 7.55 11.24 7.61 16.85 0 3.41-7.34 6.83-11.39 10.24l-4.41-.69c2.48-5.49 5.38-11 7.27-16.5 1.11-3.25.68-6.6.92-9.9v-.09l-7 9.91-1.38-.1 4.59-21.25-2.72-.2q-6.15 15.34-12.32 30.68c-1.75-3.73-.65-7.64-3.4-10.89-7.84-9.26-3.48-17.77 4.77-26.31a44.1 44.1 0 0 0 5-6.41c1.28-1.91 2.18-3.87 4.08-7.3-25 17-26.92 34.82-27.46 52.73-1.92-4.15-2.49-8.15-3.3-12.14-1.7-8.31-4.47-16.61-5-24.93-.52-7.71-4.21-14.83-11.24-21.65l-3.26.18 1.29 9v.01a.54.54 0 0 0 0-.11v.2c2.16 4 5 7.87 6.27 11.89a292.46 292.46 0 0 1 7.36 30.56c-9-7.18-15.08-14.56-13.68-23 1.06-6.43.13-12.93 0-19.4a.41.41 0 0 0 0-.09c-2.15 5.47-5.24 10.93-6.2 16.45-1.09 6.27-.25 12.6-.25 18.91-6-6.32-8.69-12.91-27.35-16.14 2.14 3 3.62 4.71 4.46 6.44a18.8 18.8 0 0 1 1.07 4.61l-3 .58c-.41-8.49-18-9.66-27-15.06L360 364l-5.52-.79c-2.48-12.14 23.45-21.21 20.73-33.52-8.26 12.75-24.64 23.79-35 37.14-1.63-2-2.81-3-3.22-4-5.19-13.25 3.33-24.62 23.64-34.27 8.45-4 16.13-8.17 18.42-13.85-17.09 6-29.55 13.5-39.11 23.69-3.2-9.78 5.15-18.4-4.57-26.43-3 11.92 5 24.28-7.21 37.33L320 329.09l-2.39.12c-.44 1.68-.88 3.36-1.66 6.29-8-6.33-15-11.54-21-17-8.38-7.59-16.56-10.94-27.66-10.51 9.2 5.4 18.11 10.81 27.46 16.06 11.62 6.53 7.6 13.29 3.2 21.54L274.51 335l-1.39.51q8.31 5.43 16.6 10.88c3 3.5 7.61 6.91 8.5 10.51 1.43 5.82.38 11.76-1.71 17.66V358h-3.58v14c-5.14-5.53-10.73.41-15.46-.36q4.79-11.49 9.57-23l-11.62 12.08h-2.1l-5.56-20.48h-1.55c-.46 4.22-.92 8.43-1.54 14.16l-5.67-7.76-1.91.19q3.24 11.1 6.46 22.2c-9.64-16.94-33.17-32.68-22.86-51.36-3 2.77-5.55 5.6-5.17 8.34 1.4 9.9 3.8 19.76 5.81 29.64l4 19.83-4.35.34c-8.3-5.22-18.7-9.58-15.58-17.6 3.71-9.5 4.14-19.26 6-28.91-2.51.93-3.76 1.94-4.14 3-2.88 8.18-3.75 16.63-17.29 23.23-1.17.56-1 1.71-1.41 2.59l11.74-4.68c-1.48 5.17-2.9 10.1-4.67 16.29-1.83-1.51-2.73-1.92-2.75-2.34 0-.65 1.13-1.39.77-2-1.56-2.43-3.49-4.81-5.29-7.2-1.83-2.24-5.5-4.54-5.14-6.71 1-6.24-.18-11.62-16-14.6 4 7.84 9.51 15.22 11.09 22.77 1.54 7.32-1 14.81-1.81 23.19-7.71-6.15-14.7-10.73-19.39-15.76s-7-10.38-11-16.49c-11.51 9.41 1.57 19.23-5.16 28.29-5-16.36-22.7-31.56-22.5-48.59-1.61 3.79-2.93 7.71-1.73 11.47 2.29 7.17 6.35 14.22 9 21.37 1.14 3.07.7 6.26.7 9.39 0 .43-1.57.86-2.55 1.36l-5.25-4.57-6.62 22.51-5.94-.33 8.26-37L119 364l-3.25-.49q2.85-8.92 5.68-17.87l-2.39-.13-5.61 8.11-5.28-12.09-3 .08c3.58 10.82 7.72 21.66-5.26 32.44-1.95-5.94-3.71-11.28-5.47-16.62-.21-.64-.36-1.28-.54-1.92l-2.74 1.15q.57 2.49 1.12 5l-2.68.15q-1.38-5.9-2.75-11.81l-2.06.09-2.2 18.64c-15.72-20.5-9.57-39.81-3.32-59.23-8.07 6.28-8.5 13.15-10.63 20-2.06 6.57-7.9 12.89-12.48 19.93-2.52-3.94-4.49-7-6.47-10.08l-3.47.43c1.73 4.15 4.09 8.27 5 12.45.86 4 .18 8 .18 12h-2.9l-6.7-5.43c-.8 5.34 8 10 .17 15.57l-3.79-9.52-1.7.15-1 8.34h-1.14q-2.46-8.33-4.91-16.66h-2.25v14.25l-4.06.25c-3.46-5.69-6.93-11.37-10.64-17.46-.54 4.4-1 8.52-1.62 13.27L0 363.72v2.72c16.16 3.89 5 10.51 7.72 15.74L0 382.8v55.89l4613.41 1.68v-87.83a339.29 339.29 0 0 0-51.91-.79zm-2291-167.49c-.06-.17-.12-.35-.17-.53l1.76-.8c.1.29.19.58.29.86zm-31.5 1.55c6.72-3.41 13.16-7 15.79-15 .81-2.46 3.05-3.44 5.65-3.64a38.8 38.8 0 0 0 5.89-1.14c3-.7 5.9-1.49 8.85-2.24a2.91 2.91 0 0 0 .1.59l-5.41 4.54c2.73 6.1 7.42 6.58 12.14 6.87-.49 2.67-2.22 2.34-3.63 2.22a11.06 11.06 0 0 0-6.59 1.84 24.28 24.28 0 0 1-9.38 3.26c-5.47.49-10.67 1.22-15.24 4.63-3.57 2.68-7.48 2-11.72.42a38.43 38.43 0 0 1 3.55-2.35zm-8.55 9.55a7.85 7.85 0 0 1 4.29-1.2c5.66.29 10.43-2.18 15.43-4.35 4.22-1.85 8.8-2.85 13.22-4.22l.13-.11h.22l-.17.1-.18.05-3.41 3 .32.41-7.89 2.93c.49 2.06.89 3.72 1.28 5.35-6.25 2.09-13.16.11-18.14 4.07l-15.55 1.14c4-2.76 7.11-5.11 10.41-7.17zM2184.12 218a27.91 27.91 0 0 1 13.29-6.36l.12-.09.29-.16-.23.22h-.18c-5.09 4-8.75 9.82-14.77 13.1-.97-4.26-.88-4.71 1.48-6.71zm93.15-63.25c-4.07 1.92-4.26 1.9-8.95-.55 6.58-1.75 6.58-1.75 8.95.51zm-995.83-83.16c3.34-3.06 3.34-3.06 12.61-.74-6.6 3.3-6.87 3.32-12.61.74zm9.5 39.84l-2.65-.63c.14-.39.27-.78.41-1.16l2.48 1.08c-.07.28-.18.47-.24.71zm-1.72-6c-3.06-1.65-5.82-2.75-9.28-2.48-2 .16-4.42.6-5.12-3 6.65-.4 13.26-1.05 17.11-9.27l-7.62-6.11c.05-.27.09-.54.14-.8 4.16 1 8.3 2.07 12.47 3a57.71 57.71 0 0 0 8.3 1.55c3.66.26 6.82 1.58 8 4.9 3.71 10.82 12.78 15.68 22.26 20.28a55.24 55.24 0 0 1 5 3.11c-6 2.15-11.48 3-16.52-.56-6.44-4.6-13.76-5.59-21.47-6.24a35.32 35.32 0 0 1-13.27-4.38zm51.07 29c-7-5.35-16.76-2.68-25.57-5.49.56-2.21 1.12-4.44 1.82-7.22l-11.12-4 .44-.54-4.78-4-.27-.08-.24-.14.31.05.2.17c6.23 1.83 12.67 3.19 18.61 5.67 7 2.92 13.77 6.26 21.74 5.87a11.38 11.38 0 0 1 6 1.62c4.65 2.77 9.05 5.94 14.6 9.66zm74.5 31.52c-8.48-4.43-13.63-12.25-20.79-17.65h-.27l-.33-.31.42.22.18.14a40 40 0 0 1 18.72 8.56c3.28 2.68 3.45 3.31 2.07 9zM62 373v-27.4c7.64 2.98 6.22 18.81 0 27.4zm8.75 5.93V358.7c4.48 7.26 6.92 13.67 0 20.17zm105.52 13.87a98.6 98.6 0 0 1 .17-11.27c.11-.92 2.34-1.79 3.6-2.67 2 .75 4.86 1.33 6 2.31 5.7 5.07 4.17 6.79-9.8 11.61zM306.12 373v-38.9c22 12.9 22.17 27.17 0 38.9zm85-.57l-12-17.73c7.23 5.14 19.71 9.5 12 17.78zm244.21 6.23c-.88-7.68 10.31-10 24.28-13 .9 4.29 1.67 7.93 2.69 12.75-10.19-4.68-17.23 0-27 .3zm93.13 11.06c.16-4.94-14.12-8.46-3.2-15.61l8.66 15zm120.07-16.89l-11.93-15.61c12.71 1.57 12.71 1.57 11.92 15.62zM1050.86 385l-5.57-.17 3.3-20.79 5.78.12zm1090.91-113c-6.64-9-13.4-18.23-20.68-28.15 7.51 1.71 14.66 2.86 18.83 9.62 3.08 4.98 3.66 15.08 1.85 18.53zm-13.19-37.54a56.78 56.78 0 0 1 6.44 2.82c2.93 1.7 3 2.38 1.7 6.24-7.25 1.5-12.88-4.6-19.95-4.25l-7.66-10.5c4.55.25 8.31.35 12.05.74a7.49 7.49 0 0 1 3 1.63c1.52 1.06 3 2.25 4.43 3.38zm67.57-64.77c-7.6 7.56-8.58 8.14-14.67 7.8 4.81-5.16 8.92-9.33 14.34-12.88a30.53 30.53 0 0 1 .56 3.22 10.17 10.17 0 0 1-.23 1.83zM2220 148c.05-1.14.23-2.28.41-4.09 2.9 2.45 7 1 9.12 4.5l-9.54 4.18c.01-1.84-.07-3.19.01-4.59zm9.36 4c1.84-.86 3.57-2 5.81-3.28l18.22 3.94 5.12-3.36 6 5 .15-.16a.74.74 0 0 1-.08.22l-.07-.06-5.2 2.53-2.4-3.88-.57.31c.18 1.5.35 3 .53 4.59l-7.67 5.84a18.2 18.2 0 0 0-8.35.84q-15.24 5.59-30.32 11.59c-3.55 1.41-6.44 1.08-9.43-2 3.1-4 6.06-8 9.15-11.86a10.69 10.69 0 0 1 3.39-3c5.18-2.61 10.48-4.84 15.69-7.28zm-12.76-6.47l.77.08c.09 1.12.18 2.24.35 4.42a11.75 11.75 0 0 1-1.39-2.56 6.35 6.35 0 0 1 .24-2zm-2.48-.8c.5 3.2 1 6.2 1.4 9-3.11 2.25-6.3 3.94-8.66 6.44s-4.16 6.08-6.32 9.35c-2.8-9.92 4.28-13.48 10.67-18.19-.49-2.68-.93-5.15-1.42-7.82zm-8-3.07c.94 3.17 3.84 6.1 1.4 10.4-1.81-3.72-3.87-6.68-1.52-10.42zm-10.28 3.13l2.55-3.28c3.82 2.8 4.67 6.9 6.19 11.08l-4.12 3.36c-1.46-4.49-5.57-6.57-4.69-11.18zm-15.32 3.46l2.12.51 7.14-3.55c2.52 3.22 4.89 6.22 7.2 9.17l-4.05 7c-7.58 3.5-15.71.94-18.31-6zm-4.67 14.54l9.13 4.39c-2.91 3.25-5.32 5.93-7.79 8.7-1.47-3.28-3-6.81-4.68-10.51zm-3.93-3.36a5.48 5.48 0 0 1-.11 1.74h-1.11c-.12-.78-.24-1.56-.45-3 .91.74 1.51.91 1.6 1.24zm-5.31-9.52c.08 0 .21.07.21.11a1.76 1.76 0 0 1-.06.38l-.22-.12a.77.77 0 0 1 0-.37zm-2.27 4.21l.82.33c-.58 2-1.16 4.07-1.87 6.54 1.64 2.66 3.41 5.59 5.23 8.5 4.71 7.52 3.45 13.34-3.91 17.84-6.64 4.07-7.13 5.35-6 13.52.68 5.08 1.06 10.21 1.83 17.7 5.82 14.25 2.85 33.26-12.5 48.52-.28-1.55-.64-2.85-.74-4.16-.34-4.7-1.15-9.15-3.69-13.31-1.16-1.91-1.4-4.61-1.5-7-.35-8.17-.91-9.22-8.21-11.4-2.65-.79-5-1.62-6.71-4.15-1.24-1.89-3.17-2.25-5.4-1.85a29.8 29.8 0 0 1-7 .56c-9.51-.6-13.64-9.21-8.61-17.42a70.65 70.65 0 0 0 5.7-10.94 30.74 30.74 0 0 1 8.52-12c5-4.4 10-8.8 14.58-13.65 3.08-3.29 6.72-5.11 10.71-6.59l15.87-5.89zm-10.54 2l2.16 1.26.16-.07 2.7-4.06c.25 2.81.25 2.86-2.7 4.06l-.09.14-.1-.06-4.83 2.1-.4-.77zm-16.25 3.73l8.91-3.81c-1.84 3.93-7.56 6.71-9.21 5.43a12.66 12.66 0 0 1 .23-1.64zm-1.28-40.45l.94.28v4.06l-4-.75zm-29.81 37.33h4.54l2-6.33c3.59 3.79 7.22-2.92 11.1 1.54-3.14 3.88-6.89 7.6-8.78 12.8 5.79-.72 11.53 1.38 17.25-2.88-.61 5-3.45 7.16-6.21 8.84-8.13 5-12.35 13.6-18.69 20.21a10 10 0 0 0-1.36 2.76l-9.31 19.9c-5.91-2.38-8.81-6.55-10.06-12.09-.46-2-.37-4.27-1.23-6.06-2.4-5-1.25-9.75.39-14.54.72-2.12 1.66-4.16 2.38-6.28a9.77 9.77 0 0 1 5.68-6.23c5.22-2.17 9.19-5.62 11.4-11 .06-.3.44-.46.83-.66zm-1.6-4.23c-4.05 9.3-5.71 11-12.7 13.19v.07l-.4.14.35-.2c-.39-2.6.78-4.6 2.36-6.45 2.09-2.45 4.14-4.92 6.18-7.35zm-19 .08c1 1.83 1.39 2.62 2.05 3.88l-4.09.58c.69-1.62 1.12-2.56 2-4.48zm1.33 6.38c4.13-1.43 7.51-3.71 9.58-7.79.28-.56.92-.94 1.39-1.4l1 .71c-9.42 8.69-12.66 20.62-16.6 32.62a12.76 12.76 0 0 1-2.13-11.59c.69-2.66 1.82-5.2 2.48-7.86a6.21 6.21 0 0 1 4.23-4.74zm-12.87.16l7.47-3.47c.1 6.22-2.36 10.72-4.51 15.68-3.13-4-4.44-8-3-12.23zm-8.87-6.6h6.84c.24 3.85 0 7.06-4.16 9l-6.63-5.43zm-7 8.79l1.24-4.76a1.3 1.3 0 0 1 0-.19l.12-.14a.56.56 0 0 1 0-.07.12.12 0 0 0 0 .06 2 2 0 0 1-.05.2v.13c.52 2.86 2.32 4.65 4.67 6.18a30.29 30.29 0 0 1 5.4 4.45c4.87 5.12 6.9 11.77 9 18.34 1.09 3.36 2 6.78 3.29 11l-7.8.45c-1.81-4-3.8-7.45-4.95-11.18a37.88 37.88 0 0 0-7.28-12.9c-1.19-1.45-2.79-2.65-3.64-4.28a43.26 43.26 0 0 1-2.26-6.56zm-109.05 34.13l2.72 3 6.62-6.62 3.14 8.1-4.16 2.12 5.11 6.62c-4.28 4.32-9.06 4.2-13.58 3.71l-4.88-7.06zm-73.05 51.27c-.5-6.13 1.85-10.85 6.26-14.84 1.77-1.6 3.39-3.36 4.93-4.9 12-1.17 20-8.92 28.5-16l26.84-3.12c-1.59 2.87-2 5-3.31 5.77-6.29 3.9-12.26 8.77-20.64 7.18-1.91-.36-4.18 1.21-6.41 1.93l-2.2-1.87c-4.13 7-10.55 12.74-20.53 18.22-4.55 6.7-5 15.65-13.38 22-.09-6.28.18-10.36-.15-14.39zm44.83-61l11.89 7.44c1.55 2.25 3.34 4.85 5.19 7.52a48 48 0 0 1-14.19 1.71c-3.55-.14-7-.57-10.48 1.84s-7.86 4-12.49 6.18v-8.45l-5-6.78c9-3 18-3.92 25-9.51zm-53.84 14.46c5.62.91 12-1.45 18.6 1.64l5.29-4.74c1.55 3 2.93 5.64 5 9.52-2.66 9.48-12.64 14.76-22.37 20.86-1.38-1.53-3.5-2.85-3.38-3.92.67-6-3-10.42-5.5-15.13-2-3.59-.65-5.64 2.27-8.28zm-14.3 4.39c7.68 9.29 11.82 20.54 14.79 33-4.59 6.9-3.69 17.31-10.88 24.1a91.82 91.82 0 0 1-5.53-27.49c-.39-7.29-1.82-15.77-9.39-20zm-25.59-32l6.85-3.31c1.43 3.8 2.69 7.14 4 10.49l1-.23v-5.82l.56-.18-.28-.32a2.46 2.46 0 0 1-1.79-.71l.64-.64 1.15 1.35a8.65 8.65 0 0 0 1.7-.12l-1.43.45-.39.39c4.54 1.85 7.27 4.53 10.25 7.48-.71 5.49-1.79 7.48-8 14.32.75 1.94 1.51 3.88 2.55 6.54-1.48-.48-2.15-.49-2.39-.81-4.41-6.05-7.88-12.79-13.63-17.87-1-.86-.75-3.06-1.13-4.9l6.29-2.1-8.17-.72a24 24 0 0 1 2.13-3.38zm-7-3.67c-.12 1.38.07 2.2-.26 2.59-1.74 2.12-.93 3.93-.25 6.34 1.88 6.65 5.68 12.09 9.58 17.52 2.28 3.17 4.86 6.15 3.14 11.77l-7.07-8.48-5.1-1.84c-2.41-9-4.47-16.67-6.6-24.64zm-26 13.07c.36-4.32-4.22-7.92-1.22-12.29 10.66 3.26 11.42 3.77 19.65 13.17v12.56c-5.2-.83-9.78-3.79-15.25-3.63-2.54.07-5.2-2-7.7-3.35a52.24 52.24 0 0 1-4.74-3.07l5.74-5.44zm-24.21-20.17l15.85 12.75-8.17 3.08-7.68-9zm-1.48 46.6c8 2.09 11.05 6.55 13.4 11.67 2.61 5.65 7 10.36 12.22 12.58 9.6 4.07 13.48 12.48 18.48 20.25a24.51 24.51 0 0 1 1.57 3.74l2.75 19.43c-5.81-.48-7.79-4.72-10.37-7.78-4-4.7-7.23-10-11.23-14.66-3.16-3.7-6.6-7.12-11.73-8.53a16.23 16.23 0 0 1-11.48-10.91c-1.34-4.26-4.86-6.21-7.46-9.12-.64-.72-2.54-.3-4.32-.45-3.72-3.43-7.62-6.65-13.37-8.48-8-2.52-15.2-7.43-23.38-10-1.37-.42-2.33-2.19-4.12-4l7.8-6.3c1.25 1.15 2.9 2.69 4.35 4l7.52-4 8.81 9.52zm-63.22-24.86l-8.95 4.13c-1.43-2.34-2.75-4.53-4.53-7.45 2.85-1.51 5.66-3.91 8.74-4.36 2.91-.43 6.12 1.19 9.73 2a20.12 20.12 0 0 0 .07 4 4.65 4.65 0 0 0 1.5 2.39 24.75 24.75 0 0 0 3.25 2.07c-1.16 2.38-1.79 3.7-2.67 5.51l5.11.23c.56 4.46.56 4.46-1.87 7.89h-6.59c-3.5-2.33-2.92-8.58-9.84-8.2 2.84-2.84 5-4.94 7.05-7.05-.33-.34-.66-.73-1-1.12zm-24.61.93l3.93 8.32 10.1 8.88c-2.16 2.52-4 4.72-5.62 6.55-4.76 1.21-9-5.34-12.8 0l-17-4.12c-.09-1.72-.16-3-.23-4.41zm65.91-9.32l4.41 3c-2.76 2.21-5.42 4.32-7.36 5.88.53 2.46.87 4.08 1.74 8.08l-8.61-7.15zm-21.82-4.6v-4.83c5.4-1.53 8.82 3.29 13.86 2.45v9.34c-6.72.88-10.42-3.19-13.86-6.92zm24.2 20.83l.35-4.66 5.14-2.61c.22.19.89.52 1.14 1 2.44 5.25 9.57 7.12 10 14.81h-11.68l-9.57-7zM1695.6 82.13l-.17.19v-.07zm-8.95-1.13c.15-.16.77.07 2.33.27l-1.89 2.3-1.22-1a6.4 6.4 0 0 1 .78-1.57zm-14.16-5.76l1.47-1.45 1-.65-.91.74-1.47 1.44-.25.11zm9.52-1.35v8.74c-7.21 5.31-14.23 9.8-23 11.27 5.91-8.26 12.73-15.44 23-20zm-26.23-.69l9.81 6.92c-8.37 11.65-71.54 47.48-90 50.73a36.21 36.21 0 0 1 1.09-6.07c1.76-4.83 3.6-9.64 5.78-14.3a17 17 0 0 1 4.29-5.42C1599.47 94.18 1614.39 87 1630 81.2c8.7-3.18 17.68-5.5 25.78-8zm-58.7 6.42L1633.22 67l4.78 3-40.95 18zm-9-6l-.08-.08zm-17.68-5h9.6l5.57 4.86-9.34 7.32c-5.89-2.57-6.23-6.9-5.85-12.09zm3.6 19.86a42.62 42.62 0 0 1 7.62-6c3.3-2.07 5.85-4.48 6.58-8.35v-.16a1.24 1.24 0 0 0-.08-.26l.17.18a2 2 0 0 1 0 .24c.58 2.13 1.14 4.25 1.74 6.44l3.27 1c-1 3-1.7 6.16-3.18 8.85-1.2 2.19-3.45 3.81-5.13 5.77-4.45 5.21-8.12 10.77-10.26 17.4-1.62 5-4.43 9.69-7 15.07l-11-.61c1.77-5.66 3.11-10.27 4.64-14.81 2.9-8.93 5.77-17.9 12.63-24.8zm-6.47-10.87c2 5.7.16 11.1-4.17 16.47-3-6.69-6.5-12.76-6.37-21.15zm-16.27-8.82c1.23 2.59 1.84 3.86 2.87 6l-5.76-.79zM1533.91 65a9.47 9.47 0 0 1 2 1.88c2.91 5.5 7.67 8.58 13.49 10.51a8.51 8.51 0 0 1 6 6.32c.92 3.59 2.51 7 3.49 10.6a16.64 16.64 0 0 1-3 15.63c-5.56-16.19-10.11-32.28-23.4-44zm-3.54 2.85c2.88 3.28 5.77 6.61 8.7 9.91 2.23 2.51 3.88 5.2 3.33 8.7h.06l.49.26-.56-.18a.34.34 0 0 0 0-.1c-9.85-2.92-12.18-5.25-17.9-17.79zm-33.12.07c5.47-6 10.59 3 15.64-2.08 1.1 3.3 1.88 5.67 2.84 8.54h6.51c.5.32 1.09.49 1.24.84 3.11 7.3 8.71 12 16.07 14.88a13.49 13.49 0 0 1 8 8.4c1 2.86 2.33 5.61 3.35 8.47 2.31 6.45 3.93 12.85.54 19.6-1.21 2.42-1.08 5.45-1.72 8.17-1.77 7.47-5.85 13.09-14.18 16.3l-13.22-26.85c-.62-1.26-1-2.78-1.91-3.72-8.95-8.91-14.89-20.55-26.34-27.25-3.89-2.27-7.9-5.25-8.76-11.92 8.07 5.74 16.15 2.91 24.31 3.88-2.62-7-7.95-12-12.37-17.25zm-18.33-43.49l1.33-.39 4.35 4.85-5.68 1zm-.48 54.15c.06.3.26 1.34.42 2.19-2.33 1.73-10.38-2-13-7.33zm-30-8.9c1.53 2.2 2.68 3.86 3.82 5.48l.21.08 3.05-1.7 4.33 3.48-.57 1-6.81-2.83-.13.07-.12-.17c-4.15-1.55-4.14-1.61-3.8-5.4zm-10.94-4.5a3.06 3.06 0 0 0 .1.51l-.3.15a1.82 1.82 0 0 1-.09-.51c0-.05.17-.09.27-.14zM1381.83 54c3.39 5 .48 9-2 14-3.43-5.77.66-9.71 2-14zm-15.93 5.34l1.09-.12a8.09 8.09 0 0 1 .37 2.62c-.13.79-.81 1.49-2 3.45.29-2.92.41-4.43.54-5.93zm-4.28-2.27c.25 2.43.5 4 .56 5.52.09 1.81 0 3.64 0 6.18l-13.44-5.63c3.03-4.64 8.78-2.75 12.88-6.05zm-62.49 13.5l.08.22a1.6 1.6 0 0 1-.08-.2zm.19.54a.82.82 0 0 0-.11-.31l.21.22zm76.18 29.33q-21.25-8.1-42.73-15.62A26.78 26.78 0 0 0 1321 83.7l-10.81-7.87c.26-2.14.5-4.16.74-6.19l-.79-.41-3.39 5.23-7.32-3.46 8.49-6.71 7.22 4.53 25.68-5.31c3.15 1.72 5.58 3.26 8.19 4.43 7.34 3.28 14.8 6.29 22.1 9.67a14.84 14.84 0 0 1 4.77 4.07c4.36 5.21 8.53 10.55 12.9 16-4.21 4.32-8.28 4.69-13.28 2.78zm14.12-8.89c-3-4.41-5.42-9-8.91-12.6-3.32-3.39-7.82-5.66-12.2-8.69q.92-5.62 2-12.12l6.09-1.66c-.68 3.6-1.31 6.93-2 10.55 8.99 6.37 18.96 11.16 15.02 24.54zm.17-18.27l-5.79-4.51c2.14-5.63 3.34-11.17 8.72-15l3.6 4.43c1.21 6.22-4.55 9-6.53 15zm15-14.48l10.07 4.78 3-.68 8.32 9.69c-3.66 9.29-15.13 12.75-25.8 8l-5.71-9.45zm-9.07 32.86a12.23 12.23 0 0 1-.33-2.5 40.09 40.09 0 0 1 .79-4.34c7.65 4.78 13.43 10.41 20.22 17.37-8.55.45-9.93-.33-20.64-10.53zm26.82 8.49l-11-11.73 12.86-5.92 4.72 3.48zM1430 78c.12-.45 1-.71 2.35-1.62l-.64 4h-1.56A6.73 6.73 0 0 1 1430 78zm34.86 139.52a54.84 54.84 0 0 1-1.05 5.62c-21.63-20.58-25.82-46.21-17.61-65.43 1.08-10.1 1.62-17 2.58-23.86 1.56-11 .87-12.75-8.49-18.23-10.36-6.07-12.15-13.91-5.5-24.06 2.55-3.91 5.05-7.86 7.36-11.46-1-3.32-1.82-6.07-2.64-8.81l1.17-.44 4.13 6.95 22.38 7.94c5.62 2 10.74 4.45 15.09 8.88 6.42 6.55 13.52 12.47 20.55 18.41a41.53 41.53 0 0 1 12 16.21 95.85 95.85 0 0 0 8 14.75c7.1 11.06 1.28 22.67-12.12 23.48a44.18 44.18 0 0 1-9.92-.74c-3.15-.54-5.87-.07-7.62 2.49-2.33 3.4-5.72 4.52-9.45 5.59-10.28 2.94-11.08 4.36-11.57 15.37-.13 3.19-.47 6.83-2.12 9.4-3.55 5.64-4.68 11.64-5.16 18zm32.28-43c1.34-.9 2.79-2.05 4.29-2.2 5.26-.52 10.56-.66 17-1-4 5.27-7.36 9.66-10.8 14.16-10-.46-17.9 7.76-28.12 5.74-1.82-5.21-1.73-6.12 2.4-8.42a86.42 86.42 0 0 1 9.09-3.8l-.08.08c2.09-1.47 4.09-3.08 6.24-4.49zm-24.76 55.09c-2.55-4.56-1.78-18.18 2.61-25 5.87-9.11 16-10.66 26.54-13zm173 143.23v-.26a16.67 16.67 0 0 1 0-2.34l1.62-.77 2 .72c-1.18 1-2.38 1.81-3.58 2.72zm177.68-27c-3.1 7.12-5.33 14.7-8.67 21.69-36.74 2.31-113.13 6.67-119.93 6.68v.11l-.86-.1h-.15a.47.47 0 0 1-.21 0q-6.28-.72-12.59-1.58c-.31-.67-.59-1.37-.86-2.07a430.15 430.15 0 0 1-43.54-4.68c-3.67-.59-7.3-1.4-10.9-2.33h-.35c-3.38-.88-6.75-1.87-10.1-2.89l-1.11 1q-7.62-1.32-15.25-2.57l-3.46-.56-3.08-.54.51-3.61c-2.58-.55-5.18-1-7.8-1.37l-1.81 3.6q-7.77-1.14-15.55-2.09-4-.5-8.05-.92a360.4 360.4 0 0 0-59.78-1.94q-5.55-22.2-10.59-44.54c-1.79-7.94-3.46-16.13-3.33-24.19a102.12 102.12 0 0 0-3.34-28.34c-2-7.61.26-14.11 4.34-20.51 10.28-16.12 23.25-30.13 35.61-44.63 4.25-5 8.78-9.74 13.18-14.6l-.09.08c.78-1.68 1.26-3.59 2.39-5 7.67-9.55 15.68-18.75 26.28-25.46 3.11-2 6-3.36 9.86-3.33a22.78 22.78 0 0 0 13.29-4.21 71.09 71.09 0 0 1 25.29-11c9.28-1.93 18.69-3.58 27.23-8a30.53 30.53 0 0 1 15.18-3.08c2.69.06 5.36.11 8 .12-6.15 2.44-11.86 4.72-17.78 7.09v1.46l-6.53 3.25-4.26-2.7c-3.32 4.56-5.75 8.72-.74 13.45q-4.83 3.79-8.17 6.44l5.14 5.12h-10v4.2l-6-3.3c-.16-1.83-.29-3.41-.35-4.23l-9 1.82-3.65 8.07-2.33-2.33L1597 155c-.81-.55-1.66-1.12-3.19-2.13v7.45l-6.9 6.9-5 .59-6.31 9.34 4.31 3.95c-.75 3.28-1.54 6.69-2.36 10.3 1.27.86 2.64 1.74 4 2.67s2.72 2 4.14 3l-1.88 1.87 8 9.8h9.8c.45 1.48.78 2.59 1 3.48l8-4.11 2.47 2.06 4.19-2.44 4.58 7.08c4.69-2.53 9.16-3.16 14.61-.6 4.2 2 9.5 4.57 14.67.45 1.09-.86 3.94-.11 5.71.57 5.51 2.12 11.6 1 17 3.37 6.87-4.31 14.38-.88 22.83-2.46l1.77 3.37c10-1.54 18.1-6.34 27.43-4.59 7.38 2.17 11.39 11.13 20.47 9.94.21 0 .45.5.73.68 7.82 5.28 15 11.49 20.45 19.06 4.16 5.84 8.68 10.11 15.17 13.07 4.06 1.85 8.51 4.75 10.68 8.42 5.68 9.62 13.53 17.16 20.51 24.23 1.35 5.17 1.62 10 3.75 13.75 7.61 13.38 4.93 27.78 5.47 41.86zm.2-90.1c-2.08-7-5.85-12.45-11-19-3.58-4.52-7.66-8.22-11.69-12.14-.42-.41-.48-1.6-.8-1.63-7.07-.84-9.08-7.55-13.48-11.47-4.78-4.26-7-9.41-6.24-15.82a58.33 58.33 0 0 0 0-5.87c7.93 5.74 15.94 9.79 26 10.59 6.66 8.33 15.75 14.89 25.12 20.29v7.13l12.32 20.31c0 5.08-.19 10.18.07 15.26.16 3.17 0 6.16 1.52 9.56 1.67 3.73 1.29 9-1.53 13.29s-2.37 10.76-7.55 14.46c-3.65-10.21-7.74-20.14-10.64-30.41-1.28-4.55-.61-9.58-2.06-14.46zM2130 329.25q-4.62 21.54-9.91 42.91c-.75 3-1.64 6-2.61 9.1l-7.9-1.85c-10.23-1-20.41-2.61-30.51-4.39-17.5-3.09-34.9-6-52.58-7.81-13.44-1.33-26.89-2.21-40.35-2.81v.14c-5.18 0-10.38-.13-15.57-.21a2.46 2.46 0 0 0-.13-.5c-14.24-.41-28.49-.57-42.74-.67-.09.16-.17.32-.28.48-16.32-.2-32.64-.24-48.9.15v-1c-14.34-.21-28.67-.58-43-1.31a39.53 39.53 0 0 0-2.32 4.16c.34-1.07.68-2.14 1-3.2 3.07-10.1 3-20.43 6-30.9.91-2 2.17-4.54 3.29-7.15 6.47-15 12.88-30.13 25-41.81 4.17-4 8.47-8 12.24-12.33 5.67-6.58 10.86-13.55 12.35-22.48 5.59-5.56 10.94-11.53 20.86-11l4.33-6.5c5.32-.22 9.65-2.86 14.2-3.31 5.17-.5 8.79-3.67 13.23-5.3s8.71-3.65 13-5.47l2.48 2.25c2.27-1.69 3.74-4.11 7.45-4.27s7.2-2.2 10.55-3.9a34.91 34.91 0 0 1 16.75-4.16 49.48 49.48 0 0 0 11.78-.9c6.29-1.38 11.32-5.26 17.19-6.67 3.39 2.72 7 1 10.62 1.68.26-2.26.45-3.87.55-4.71.67-.55 1.32-1.08 1.94-1.57l4.37.94a49.42 49.42 0 0 1 17.94 8.13 15.76 15.76 0 0 0 9.44 3.12 12 12 0 0 1 7 2.47c7.52 5 13.21 11.8 18.65 18.89a18.39 18.39 0 0 1 1.7 3.7l-.07-.05c3.13 3.6 6.34 7.12 9.36 10.82 8.76 10.75 18 21.15 25.27 33.1 2.89 4.75 4.52 9.57 3.07 15.21a79.15 79.15 0 0 0-2.36 21c.12 6.11-1.07 12.19-2.34 18.07zM3126.5 373v-27.4c7.67 2.98 6.25 18.81 0 27.4zm8.75 5.93V358.7c4.51 7.26 6.95 13.67 0 20.17zm105.52 13.91a98.62 98.62 0 0 1 .17-11.27c.11-.92 2.34-1.79 3.6-2.67 2 .75 4.86 1.33 6 2.31 5.73 5.07 4.2 6.79-9.77 11.61zM3370.65 373v-38.9c22 12.9 22.17 27.17 0 38.9zm85-.57l-12-17.73c7.23 5.14 19.71 9.5 12 17.78zm244.21 6.23c-.88-7.68 10.31-10 24.28-13 .9 4.29 1.67 7.93 2.69 12.75-10.19-4.68-17.23 0-27 .3zm93.14 11.07c.16-4.94-14.12-8.46-3.2-15.61l8.66 15zm120-16.89l-11.92-15.62c12.76 1.57 12.76 1.57 11.92 15.62zm202.33 12.23l-5.57-.17 3.3-20.79 5.78.12z" fill="#27100f"/></svg>